<?xml version="1.0" encoding="UTF-8"?>
<svg version="1.1" xmlns="http://www.w3.org/2000/svg" width="365" height="365" viewBox="155 0 365 365">
<rect x="155" y="0" width="365" height="365" rx="64" fill="#FFFFFF"/>
<path d="M0 0 C4.43993959 -0.70145091 8.94869469 -0.50920309 13.4375 -0.5 C14.69111328 -0.52835937 15.94472656 -0.55671875 17.23632812 -0.5859375 C19.03553711 -0.58980469 19.03553711 -0.58980469 20.87109375 -0.59375 C21.97380615 -0.60083984 23.07651855 -0.60792969 24.21264648 -0.61523438 C27 0 27 0 28.78710938 2.30541992 C29.18736328 3.19463135 29.58761719 4.08384277 30 5 C30.42551147 5.94516479 30.42551147 5.94516479 30.85961914 6.90942383 C31.08254639 7.50263428 31.30547363 8.09584473 31.53515625 8.70703125 C31.78716797 9.37669922 32.03917969 10.04636719 32.29882812 10.73632812 C32.55083984 11.42146484 32.80285156 12.10660156 33.0625 12.8125 C33.31837891 13.48603516 33.57425781 14.15957031 33.83789062 14.85351562 C35.2890969 18.75200034 36.40211741 22.60591884 37.36743164 26.6574707 C38.83507183 32.09244084 40.82534614 37.37805591 42.6875 42.6875 C43.59299493 45.28711891 44.49577888 47.88767634 45.3984375 50.48828125 C45.6220546 51.13164429 45.84567169 51.77500732 46.07606506 52.43786621 C48.8311044 60.37452331 51.4744464 68.34757365 54.11376953 76.32324219 C57.83873226 87.57406625 61.63148748 98.79782728 65.5 110 C66.42798339 112.68719053 67.35518942 115.37464619 68.28125 118.0625 C68.50742508 118.71856232 68.73360016 119.37462463 68.96662903 120.05056763 C70.97026326 125.87890552 72.90580746 131.7288009 74.82495117 137.58544922 C76.41115168 142.19475742 78.21930614 146.69038347 80.08203125 151.1953125 C80.9962737 153.98861497 81.18682045 156.08560095 81 159 C81.66 159 82.32 159 83 159 C83.20036865 157.91211182 83.20036865 157.91211182 83.40478516 156.80224609 C83.96292452 154.17454978 84.67670169 151.71137256 85.5234375 149.1640625 C85.8225 148.26429688 86.1215625 147.36453125 86.4296875 146.4375 C86.89761719 145.0453125 86.89761719 145.0453125 87.375 143.625 C87.67921875 142.70460937 87.9834375 141.78421875 88.296875 140.8359375 C89.60631443 136.91881099 90.9251237 133.05016943 92.6015625 129.2734375 C94.04848134 125.88651575 95.0476695 122.5553672 96 119 C97.35441856 114.12101497 98.97438441 109.64203573 101 105 C101.99098414 101.90265627 102.92503597 98.79251797 103.83984375 95.671875 C105.09253358 91.70713278 106.5116977 87.82455643 107.94506836 83.92236328 C109.66170906 79.1669388 111.23219575 74.36459093 112.8125 69.5625 C115.68623754 60.86934212 118.6369602 52.2096303 121.74145508 43.59594727 C123.45802101 38.77606099 124.83355007 33.98289292 126 29 C124.53626953 28.96132812 124.53626953 28.96132812 123.04296875 28.921875 C121.13451172 28.83679688 121.13451172 28.83679688 119.1875 28.75 C117.92292969 28.70359375 116.65835938 28.6571875 115.35546875 28.609375 C112 28 112 28 110.31298828 26.2668457 C108.79436 23.64496702 108.62603462 22.13084282 108.63671875 19.12109375 C108.63768555 17.73954102 108.63768555 17.73954102 108.63867188 16.33007812 C108.65478516 15.37552734 108.67089844 14.42097656 108.6875 13.4375 C108.68427734 12.47908203 108.68105469 11.52066406 108.67773438 10.53320312 C108.73271336 3.40092997 108.73271336 3.40092997 111 0 C113.63223267 -0.36076355 113.63223267 -0.36076355 117.01025391 -0.34057617 C118.27141022 -0.34034958 119.53256653 -0.34012299 120.8319397 -0.33988953 C122.21348421 -0.32456844 123.59502513 -0.30892044 124.9765625 -0.29296875 C126.38617503 -0.28737433 127.79579338 -0.2831035 129.20541382 -0.28010559 C132.91768464 -0.26864454 136.629604 -0.23916704 140.34173584 -0.20599365 C144.12881719 -0.1753196 147.91595526 -0.16160599 151.703125 -0.14648438 C159.135577 -0.11429811 166.56773928 -0.0630871 174 0 C176.18937176 3.94554359 176.29911422 7.37994169 176.25 11.8125 C176.25773438 12.49892578 176.26546875 13.18535156 176.2734375 13.89257812 C176.25561051 18.60336002 175.61417534 22.56101783 174 27 C170.40400196 28.79799902 166.03675448 28.18167117 162.06640625 28.23046875 C158.78983087 28.69060833 158.78983087 28.69060833 157.24609375 31.58984375 C155.93761026 35.17074056 154.66749315 38.74529374 153.5 42.375 C151.40877741 48.84974688 149.07768524 55.19120543 146.640625 61.54296875 C142.14691336 73.32002762 138.1880791 85.25699192 134.26855469 97.23535156 C132.03117263 104.06912938 129.72057565 110.81829711 126.96875 117.46484375 C125.42187094 121.51292645 124.2344212 125.66420507 123.02734375 129.82421875 C121.89480077 133.32519763 120.45672793 136.62218871 119 140 C118.22362344 142.2201179 117.47459026 144.44994486 116.75 146.6875 C112.4301716 159.87487768 107.86796686 173.004645 103 186 C102.66226563 186.91523438 102.32453125 187.83046875 101.9765625 188.7734375 C101.46222656 190.12308594 101.46222656 190.12308594 100.9375 191.5 C100.63714844 192.2940625 100.33679688 193.088125 100.02734375 193.90625 C98.88249282 196.23948231 98.12945753 197.49493483 96 199 C91.37384303 199.79740337 86.68753078 199.83768256 82 200 C80.42025391 200.07927734 80.42025391 200.07927734 78.80859375 200.16015625 C73.53430703 200.32520196 70.34554946 200.32264049 66 197 C64.6640625 194.8203125 64.6640625 194.8203125 63.625 192.125 C63.21636719 191.06796875 62.80773437 190.0109375 62.38671875 188.921875 C60.34039786 183.2337966 58.44347879 177.49105248 56.58642578 171.73876953 C54.88791673 166.50309811 53.01399156 161.39427269 50.90063477 156.31103516 C49.96197445 153.90242617 49.21198031 151.48424231 48.5 149 C47.55363051 145.7256628 46.48355557 142.58963515 45.1875 139.4375 C41.11309936 129.5158679 37.74154458 119.3046023 34.375 109.125 C32.69374031 104.04385962 30.93719797 99.00319487 29.08984375 93.98046875 C25.23397429 83.43556408 21.55299031 72.83336078 18.09228516 62.15209961 C16.98264327 58.76687651 15.80948959 55.46723644 14.37890625 52.203125 C13.10870871 49.25252447 12.37203399 46.43343019 11.64453125 43.31640625 C10.87831276 40.56266344 9.86531659 37.97026174 8.8125 35.3125 C6.42338645 29.2505701 4.30622682 23.11994867 2.25 16.9375 C1.94425049 16.02073486 1.63850098 15.10396973 1.32348633 14.15942383 C-0.30237099 9.24263064 -0.30237099 9.24263064 -1 7 C-1.2362207 6.30849854 -1.47244141 5.61699707 -1.71582031 4.90454102 C-2 3 -2 3 0 0 Z " fill="#EE960F" transform="translate(314,85)"/>
<path d="M0 0 C1.77487193 -0.01667007 3.54967383 -0.04410254 5.32421875 -0.08203125 C7.89715973 -0.13660303 10.46855193 -0.15862673 13.04199219 -0.17333984 C13.83575256 -0.19600922 14.62951294 -0.21867859 15.44732666 -0.24203491 C17.68359375 -0.23339844 17.68359375 -0.23339844 21.40136719 0.35009766 C23.35742188 2.73535156 23.35742188 2.73535156 24.40136719 5.35009766 C24.75199219 6.12869141 25.10261719 6.90728516 25.46386719 7.70947266 C31.40136719 22.85009766 31.40136719 22.85009766 31.40136719 27.35009766 C22.33991921 28.6080861 13.36871076 28.40517336 4.23730469 28.31103516 C-10.74172887 27.40054772 -10.74172887 27.40054772 -23.59863281 33.35009766 C-28.11522746 40.31418595 -29.29857007 46.35388309 -29.28613281 54.53759766 C-29.33530481 56.56765201 -29.38869361 58.59760858 -29.44628906 60.62744141 C-29.46965332 61.60567871 -29.49301758 62.58391602 -29.51708984 63.59179688 C-29.88332785 75.98029101 -31.95732067 85.26687311 -40.65332031 94.54150391 C-42.80286154 96.53997296 -45.03878527 97.92796013 -47.59863281 99.35009766 C-45.44277825 101.58579868 -43.33932359 103.54457957 -40.84863281 105.41259766 C-39.73488281 106.37166016 -39.73488281 106.37166016 -38.59863281 107.35009766 C-38.59863281 108.34009766 -38.59863281 109.33009766 -38.59863281 110.35009766 C-37.60863281 110.68009766 -36.61863281 111.01009766 -35.59863281 111.35009766 C-29.99209405 119.84485335 -29.67691128 129.94119627 -29.43457031 139.86181641 C-29.504026 153.9309216 -29.504026 153.9309216 -23.59863281 166.35009766 C-23.02242187 167.14867187 -23.02242187 167.14867187 -22.43457031 167.96337891 C-16.12631634 172.72812393 -6.68048133 171.61364919 0.76464844 171.58837891 C3.36816937 171.60378289 5.97168511 171.62008533 8.57519531 171.63720703 C12.66159357 171.6559577 16.74779459 171.66399641 20.83422852 171.65551758 C24.79048377 171.64855718 28.74601638 171.68090135 32.70214844 171.71337891 C34.5442968 171.69806877 34.5442968 171.69806877 36.42366028 171.68244934 C37.55881577 171.69563705 38.69397125 171.70882477 39.86352539 171.72241211 C41.36288383 171.72335625 41.36288383 171.72335625 42.89253235 171.72431946 C45.40136719 172.35009766 45.40136719 172.35009766 47.22322083 174.76127625 C48.34228441 177.22027104 48.78602781 178.71781715 48.79980469 181.38134766 C48.80367187 182.10966797 48.80753906 182.83798828 48.81152344 183.58837891 C48.79412109 184.70792969 48.79412109 184.70792969 48.77636719 185.85009766 C48.78796875 186.59646484 48.79957031 187.34283203 48.81152344 188.11181641 C48.80765625 188.84013672 48.80378906 189.56845703 48.79980469 190.31884766 C48.7964209 190.97304688 48.79303711 191.62724609 48.78955078 192.30126953 C48.23391741 195.23389549 47.22662733 196.98349479 45.40136719 199.35009766 C42.64697266 199.97155762 42.64697266 199.97155762 39.26855469 199.96533203 C37.37012817 199.97929016 37.37012817 199.97929016 35.43334961 199.99353027 C34.04767765 199.97793046 32.6620165 199.96134419 31.27636719 199.94384766 C29.84969178 199.94213534 28.42301323 199.94220346 26.99633789 199.94396973 C24.00002067 199.94231451 21.00444974 199.92359875 18.00830078 199.89208984 C14.19666482 199.85269779 10.38601925 199.84800977 6.57421875 199.85555267 C3.62273337 199.85864918 0.67146403 199.84640308 -2.27996826 199.829422 C-3.68315266 199.82245972 -5.08636158 199.8192591 -6.48956299 199.82011414 C-21.04231132 199.80665598 -33.92252562 197.22997481 -44.90722656 187.11181641 C-56.8739783 174.64760155 -58.06251434 159.99647342 -58.18408203 143.48266602 C-58.3023613 135.16922785 -58.79344596 126.16826865 -63.84863281 119.28759766 C-69.02607192 115.63985647 -74.59035487 114.03241548 -80.59863281 112.35009766 C-83.01679448 109.93193599 -81.784103 103.66231947 -81.78613281 100.41259766 C-81.79837891 99.38457031 -81.810625 98.35654297 -81.82324219 97.29736328 C-81.82517578 96.31574219 -81.82710937 95.33412109 -81.82910156 94.32275391 C-81.83321045 93.4179126 -81.83731934 92.51307129 -81.84155273 91.58081055 C-81.59863281 89.35009766 -81.59863281 89.35009766 -79.59863281 87.35009766 C-77.71582031 86.92822266 -77.71582031 86.92822266 -75.47363281 86.60009766 C-70.16193548 85.49492192 -66.37898044 83.23718451 -62.59863281 79.35009766 C-58.98025491 73.7785469 -58.49879058 67.12183917 -58.42285156 60.63916016 C-57.74296813 25.42543107 -57.74296813 25.42543107 -43.53613281 11.29931641 C-30.97678944 0.51767421 -15.66037831 0.10790205 0 0 Z " fill="#151D2A" transform="translate(269.5986328125,84.64990234375)"/>
<path d="M0 0 C2.63223267 -0.36076355 2.63223267 -0.36076355 6.01025391 -0.34057617 C7.27141022 -0.34034958 8.53256653 -0.34012299 9.8319397 -0.33988953 C11.21348421 -0.32456844 12.59502513 -0.30892044 13.9765625 -0.29296875 C15.38617503 -0.28737433 16.79579338 -0.2831035 18.20541382 -0.28010559 C21.91768464 -0.26864454 25.629604 -0.23916704 29.34173584 -0.20599365 C33.12881719 -0.1753196 36.91595526 -0.16160599 40.703125 -0.14648438 C48.135577 -0.11429811 55.56773928 -0.0630871 63 0 C65.18937176 3.94554359 65.29911422 7.37994169 65.25 11.8125 C65.26160156 12.84213867 65.26160156 12.84213867 65.2734375 13.89257812 C65.25561051 18.60336002 64.61417534 22.56101783 63 27 C60.193258 28.403371 57.69089031 28.11426009 54.5625 28.1875 C49.59027445 28.35083179 49.59027445 28.35083179 45.9375 31.3125 C45.628125 32.529375 45.31875 33.74625 45 35 C44.27899343 37.12778254 43.54920077 39.25260018 42.8125 41.375 C42.20392989 43.2485754 41.59829414 45.12311788 41 47 C40.67 47 40.34 47 40 47 C39.81936982 42.39393034 40.07173956 39.17789762 42 35 C42.67795528 33.00379834 43.34733531 31.00461299 44 29 C44.66 29 45.32 29 46 29 C46.495 27.515 46.495 27.515 47 26 C48.26457031 25.94392578 48.26457031 25.94392578 49.5546875 25.88671875 C51.19824219 25.78810547 51.19824219 25.78810547 52.875 25.6875 C53.96554687 25.62949219 55.05609375 25.57148437 56.1796875 25.51171875 C57.11039062 25.34285156 58.04109375 25.17398438 59 25 C61.24264875 21.63602688 61.19879647 20.65353089 61.0625 16.75 C60.97479842 12.34738056 61.23035756 8.3292387 62 4 C55.12762787 2.9727997 48.34833856 2.78537482 41.40625 2.68359375 C40.21898315 2.66281265 39.03171631 2.64203156 37.80847168 2.62062073 C34.03903648 2.55556145 30.26953529 2.4964441 26.5 2.4375 C23.93488918 2.39427325 21.36978488 2.35065767 18.8046875 2.30664062 C12.53652489 2.19992506 6.26829631 2.0985362 0 2 C0.33 9.59 0.66 17.18 1 25 C5.95 25.33 10.9 25.66 16 26 C16 26.99 16 27.98 16 29 C13.55987895 28.93997242 11.12586474 28.85299796 8.6875 28.75 C7.99720703 28.73582031 7.30691406 28.72164062 6.59570312 28.70703125 C1.44985046 28.45843933 1.44985046 28.45843933 -0.70068359 26.2668457 C-2.20236435 23.64694607 -2.37393232 22.12152769 -2.36328125 19.12109375 C-2.36263672 18.20005859 -2.36199219 17.27902344 -2.36132812 16.33007812 C-2.34521484 15.37552734 -2.32910156 14.42097656 -2.3125 13.4375 C-2.31572266 12.47908203 -2.31894531 11.52066406 -2.32226562 10.53320312 C-2.26728664 3.40092997 -2.26728664 3.40092997 0 0 Z " fill="#E1B05E" transform="translate(425,85)"/>
<path d="M0 0 C0.33 0 0.66 0 1 0 C1.23074219 0.76441406 1.46148437 1.52882812 1.69921875 2.31640625 C4.79476423 12.48398844 7.9976716 22.62021123 11.6875 32.58984375 C11.96803223 33.35586914 12.24856445 34.12189453 12.53759766 34.91113281 C13.0851741 36.39964673 13.64179023 37.88487435 14.20849609 39.36621094 C16.49412555 45.59866712 16.49412555 45.59866712 15 49 C12.4345406 46.4345406 12.45953913 44.52313332 12 41 C11.34 41 10.68 41 10 41 C8.87203655 38.7440731 8.80177006 37.19174245 8.625 34.6875 C8.21630205 30.67076545 7.21434762 28.40668865 5 25 C4.17423582 22.71389424 3.44884968 20.41257578 2.74609375 18.0859375 C2.00242801 15.74139375 2.00242801 15.74139375 0 13 C-0.1953125 9.86328125 -0.1953125 9.86328125 -0.125 6.3125 C-0.09792969 4.54326172 -0.09792969 4.54326172 -0.0703125 2.73828125 C-0.04710937 1.83464844 -0.02390625 0.93101562 0 0 Z " fill="#E3A442" transform="translate(364,151)"/>
<path d="M0 0 C1.84113283 2.76169925 2.5677017 4.55720895 3.4375 7.6875 C4.3885016 11.00630152 5.42589467 14.22397698 6.6875 17.4375 C8 21 8 21 8 24 C8.66 24 9.32 24 10 24 C11.84216739 27.22957379 12.50290748 30.14928511 13.0625 33.8125 C13.22621094 34.86566406 13.38992188 35.91882813 13.55859375 37.00390625 C13.70425781 37.99261719 13.84992188 38.98132813 14 40 C14.17208984 41.15822266 14.17208984 41.15822266 14.34765625 42.33984375 C14.57303473 43.89209836 14.78807073 45.44585205 15 47 C11.71398075 43.32510273 10.56982253 39.23338589 9.125 34.625 C8.60283468 33.00740128 8.07938095 31.39021794 7.5546875 29.7734375 C7.29526367 28.9700293 7.03583984 28.16662109 6.76855469 27.33886719 C5.29823622 22.86439104 3.68245537 18.44357683 2.078125 14.015625 C1.72234375 13.02046875 1.3665625 12.0253125 1 11 C0.42378906 9.41058594 0.42378906 9.41058594 -0.1640625 7.7890625 C-1.08288783 4.72344901 -0.89248782 3.03445859 0 0 Z " fill="#DCA037" transform="translate(333,142)"/>
<path d="M0 0 C2.57929658 2.57929658 3.14549787 4.90527717 4.3125 8.36328125 C4.52688721 8.99227829 4.74127441 9.62127533 4.9621582 10.26933289 C5.64698691 12.28188976 6.32377092 14.29703914 7 16.3125 C7.67778457 18.31668872 8.35723004 20.32030179 9.0378418 22.3235321 C9.65710071 24.14868487 10.27202237 25.97530752 10.88671875 27.80200195 C11.93595246 30.95424047 11.93595246 30.95424047 13.20703125 33.73510742 C14 36 14 36 13 39 C13 38.34 13 37.68 13 37 C12.34 37 11.68 37 11 37 C11 36.01 11 35.02 11 34 C10.34 34 9.68 34 9 34 C7.42154372 31.18403399 6.77906315 29.08662407 6.625 25.875 C6.21006933 21.28813007 4.78710331 17.57188921 2.98828125 13.359375 C1.10881406 8.87242565 0 4.91587568 0 0 Z " fill="#DCAC57" transform="translate(350,112)"/>
<path d="M0 0 C0.33 0 0.66 0 1 0 C0.84103894 9.08968235 -0.65148738 15.99296016 -5 24 C-6.9375 23.625 -6.9375 23.625 -9 23 C-10.60725635 19.78548731 -10.05748185 16.56387464 -10 13 C-8 15 -8 15 -7.875 17.625 C-7.91625 18.40875 -7.9575 19.1925 -8 20 C-7.34 20 -6.68 20 -6 20 C-5.88785156 19.33613281 -5.77570313 18.67226562 -5.66015625 17.98828125 C-4.84442228 14.29575765 -3.65819352 10.76067852 -2.4375 7.1875 C-2.20353516 6.49462891 -1.96957031 5.80175781 -1.72851562 5.08789062 C-1.15508324 3.39099886 -0.57791831 1.69536922 0 0 Z " fill="#E2AB49" transform="translate(403,224)"/>
<path d="M0 0 C1.1433729 3.43822772 0.86227289 5.96593766 0.1875 9.5 C0.01605469 10.4384375 -0.15539062 11.376875 -0.33203125 12.34375 C-0.95366613 14.81574835 -1.76124283 16.78382683 -3 19 C-3.66 19 -4.32 19 -5 19 C-4.95875 20.051875 -4.9175 21.10375 -4.875 22.1875 C-4.9933559 25.79735482 -5.22513098 27.89397921 -7 31 C-9.078125 32.13671875 -9.078125 32.13671875 -11 33 C-8.93018793 25.9515541 -6.70683549 18.96586451 -4.375 12 C-4.06304687 11.06027344 -3.75109375 10.12054688 -3.4296875 9.15234375 C-2.98109375 7.80849609 -2.98109375 7.80849609 -2.5234375 6.4375 C-2.25450684 5.63183594 -1.98557617 4.82617188 -1.70849609 3.99609375 C-1 2 -1 2 0 0 Z " fill="#E0AA4E" transform="translate(430,146)"/>
<path d="M0 0 C0.33 0 0.66 0 1 0 C1.34990229 6.41487525 0.28087287 11.04088156 -2 17 C-2.59748047 18.69576172 -2.59748047 18.69576172 -3.20703125 20.42578125 C-3.84705078 22.19501953 -3.84705078 22.19501953 -4.5 24 C-5.10328125 25.670625 -5.10328125 25.670625 -5.71875 27.375 C-6.1415625 28.24125 -6.564375 29.1075 -7 30 C-7.99 30.33 -8.98 30.66 -10 31 C-9.51770449 27.04517685 -8.54476695 23.8700186 -6.890625 20.26171875 C-5.22280322 16.02632922 -4.1492191 11.59730615 -2.96484375 7.20703125 C-2.17639593 4.58632008 -1.32728185 2.37730926 0 0 Z " fill="#E0B057" transform="translate(414,193)"/>
<path d="M0 0 C4.33731085 3.53833254 5.52858419 6.00962716 6.46484375 11.47265625 C7.06847127 14.32336431 8.0479496 16.85673923 9.125 19.5625 C10.93560876 24.32373044 11.38188397 27.94003743 11 33 C8.6238635 30.6238635 8.42464725 28.73284506 7.69921875 25.53515625 C6.85147495 22.46149299 5.69063535 19.58238458 4.5 16.625 C2.32863558 11.13573949 0.88175859 5.83013516 0 0 Z " fill="#E0B05D" transform="translate(318,103)"/>
<path d="M0 0 C1.41541084 4.24623251 -0.38565992 7.05092821 -2 11 C-2.53998098 12.42526474 -3.0751912 13.85234665 -3.60546875 15.28125 C-5.0703125 19.1875 -6.53515625 23.09375 -8 27 C-8.33 27 -8.66 27 -9 27 C-8.88490339 25.58249437 -8.75746342 24.16598831 -8.625 22.75 C-8.55539062 21.96109375 -8.48578125 21.1721875 -8.4140625 20.359375 C-8 18 -8 18 -7.015625 16.0859375 C-5.27951005 12.52022449 -5.20662607 8.58532052 -4.7578125 4.6796875 C-4 2 -4 2 -1.9296875 0.6328125 C-1.29289062 0.42398438 -0.65609375 0.21515625 0 0 Z " fill="#E1A541" transform="translate(464,132)"/>
<path d="M0 0 C8.91 0 17.82 0 27 0 C27 0.33 27 0.66 27 1 C14.625 1.495 14.625 1.495 2 2 C1.73647686 6.73647686 1.73647686 6.73647686 3 10 C3.96561364 12.89684092 4.1776563 14.97984289 4 18 C1.67016535 15.67016535 0.92853931 13.75419209 -0.25 10.6875 C-0.62640625 9.74261719 -1.0028125 8.79773438 -1.390625 7.82421875 C-2 5 -2 5 0 0 Z " fill="#E5BD7D" transform="translate(314,85)"/>
<path d="M0 0 C-0.68711927 2.30601392 -1.37795666 4.61078791 -2.07421875 6.9140625 C-2.73413311 9.11377703 -3.38118913 11.31736626 -4.01953125 13.5234375 C-4.36371094 14.69132813 -4.70789063 15.85921875 -5.0625 17.0625 C-5.38347656 18.16722656 -5.70445312 19.27195313 -6.03515625 20.41015625 C-7 23 -7 23 -9 24 C-9.08167446 22.58430936 -9.13949698 21.16723195 -9.1875 19.75 C-9.22230469 18.96109375 -9.25710938 18.1721875 -9.29296875 17.359375 C-8.93158804 14.44905566 -7.76405545 13.30036376 -6 11 C-5.29368145 8.458403 -5.29368145 8.458403 -4.9375 5.8125 C-4.52734375 3.14453125 -4.52734375 3.14453125 -4 1 C-2 0 -2 0 0 0 Z " fill="#E1AE51" transform="translate(443,195)"/>
<path d="M0 0 C1.32 0 2.64 0 4 0 C3.43958106 4.76356099 1.41302403 8.58697597 -2 12 C-4.18639453 12.07258946 -6.37500389 12.08373783 -8.5625 12.0625 C-10.35880859 12.04896484 -10.35880859 12.04896484 -12.19140625 12.03515625 C-13.11824219 12.02355469 -14.04507812 12.01195312 -15 12 C-14.67 11.01 -14.34 10.02 -14 9 C-10.04 9.33 -6.08 9.66 -2 10 C-1.34 6.7 -0.68 3.4 0 0 Z " fill="#E0AE55" transform="translate(412,272)"/>
<path d="M0 0 C1.90276522 2.85414783 2.65607642 4.8694682 3.5625 8.125 C4.27737882 11.34168287 4.27737882 11.34168287 6 14 C6.23363881 15.84891946 6.41303635 17.70488031 6.5625 19.5625 C6.64628906 20.57441406 6.73007812 21.58632812 6.81640625 22.62890625 C6.90728516 23.80259766 6.90728516 23.80259766 7 25 C3.95860461 21.95860461 3.15855289 18.21298995 1.8125 14.1875 C1.52697266 13.37990234 1.24144531 12.57230469 0.94726562 11.74023438 C-1.53355787 4.3701967 -1.53355787 4.3701967 0 0 Z " fill="#E1B464" transform="translate(333,142)"/>
<path d="M0 0 C4.95 0 9.9 0 15 0 C15 0.33 15 0.66 15 1 C14.09636719 1.00257812 13.19273437 1.00515625 12.26171875 1.0078125 C8.75955113 1.12263767 5.44552774 1.35724292 2 2 C-0.35733929 4.28523458 -0.35733929 4.28523458 -1 8 C-1.72100657 10.12778254 -2.45079923 12.25260018 -3.1875 14.375 C-3.79607011 16.2485754 -4.40170586 18.12311788 -5 20 C-5.33 20 -5.66 20 -6 20 C-6.18063018 15.39393034 -5.92826044 12.17789762 -4 8 C-3.32204472 6.00379834 -2.65266469 4.00461299 -2 2 C-1.34 2 -0.68 2 0 2 C0 1.34 0 0.68 0 0 Z " fill="#E7C372" transform="translate(471,112)"/>
<path d="M0 0 C2 3.75 2 3.75 2 6 C2.66 6 3.32 6 4 6 C6.63463787 11.84560277 8.56131481 16.54487966 8 23 C5.2015737 20.2015737 4.23006913 16.82803262 2.875 13.1875 C2.59785156 12.47529297 2.32070313 11.76308594 2.03515625 11.02929688 C0.60768029 7.22855423 -0.37309913 4.12842294 0 0 Z " fill="#DFB054" transform="translate(364,234)"/>
<path d="M0 0 C2.31 0 4.62 0 7 0 C7 0.33 7 0.66 7 1 C5.02 1 3.04 1 1 1 C1.33 7.6 1.66 14.2 2 21 C3.98 21.33 5.96 21.66 8 22 C8 22.66 8 23.32 8 24 C5.66705225 24.04241723 3.33297433 24.04092937 1 24 C0 23 0 23 -0.11352539 20.77514648 C-0.10828857 19.81680908 -0.10305176 18.85847168 -0.09765625 17.87109375 C-0.09443359 16.83662109 -0.09121094 15.80214844 -0.08789062 14.73632812 C-0.07951172 13.64771484 -0.07113281 12.55910156 -0.0625 11.4375 C-0.05798828 10.34501953 -0.05347656 9.25253906 -0.04882812 8.12695312 C-0.03699826 5.41791505 -0.02051543 2.70898401 0 0 Z " fill="#E4961D" transform="translate(425,87)"/>
<path d="M0 0 C0.33 0 0.66 0 1 0 C3.28953836 6.98575424 5.42351925 13.64987044 6 21 C2.6098285 19.30491425 1.18752671 16.45513724 0 13 C-0.33464769 8.64450964 -0.23597607 4.35900247 0 0 Z " fill="#E0A440" transform="translate(364,151)"/>
<path d="M0 0 C0.84755859 0.04833984 1.69511719 0.09667969 2.56835938 0.14648438 C3.44943359 0.20255859 4.33050781 0.25863281 5.23828125 0.31640625 C6.13095703 0.36861328 7.02363281 0.42082031 7.94335938 0.47460938 C10.14619685 0.60418805 12.34856998 0.73914871 14.55078125 0.87890625 C11.48921471 2.65559848 9.3104191 3.11941443 5.78515625 3.07421875 C4.89570313 3.06777344 4.00625 3.06132813 3.08984375 3.0546875 C2.16945313 3.03792969 1.2490625 3.02117187 0.30078125 3.00390625 C-0.63507813 2.99488281 -1.5709375 2.98585938 -2.53515625 2.9765625 C-4.84010532 2.95304261 -7.14453035 2.92017478 -9.44921875 2.87890625 C-6.44606551 -0.12424699 -4.04014046 -0.24403533 0 0 Z " fill="#51555E" transform="translate(260.44921875,110.12109375)"/>
<path d="M0 0 C8.91 0 17.82 0 27 0 C30 6 30 6 29.6875 8.375 C29.460625 8.91125 29.23375 9.4475 29 10 C26 4.375 26 4.375 26 1 C17.42 1 8.84 1 0 1 C0 0.67 0 0.34 0 0 Z " fill="#DAA14A" transform="translate(315,86)"/>
<path d="M0 0 C-0.99 1.485 -0.99 1.485 -2 3 C-0.35 3.99 1.3 4.98 3 6 C1 7 1 7 -1.8203125 6.22265625 C-2.91085938 5.83980469 -4.00140625 5.45695313 -5.125 5.0625 C-6.22070312 4.68222656 -7.31640625 4.30195313 -8.4453125 3.91015625 C-9.28835937 3.60980469 -10.13140625 3.30945313 -11 3 C-10.34 2.67 -9.68 2.34 -9 2 C-9 1.34 -9 0.68 -9 0 C-5.93109813 -1.53445094 -3.29905734 -0.54984289 0 0 Z " fill="#2D333E" transform="translate(200,194)"/>
<path d="M0 0 C1.84113283 2.76169925 2.5677017 4.55720895 3.4375 7.6875 C4.38843397 11.02308376 5.44667111 14.22381234 6.75 17.4375 C8 21 8 21 7 24 C2.26624286 18.42528887 -0.2649512 9.98368642 -0.25 2.6875 C-0.1675 1.800625 -0.085 0.91375 0 0 Z " fill="#E4B466" transform="translate(385,213)"/>
<path d="M0 0 C0.66 0 1.32 0 2 0 C6.40774487 13.6332574 6.40774487 13.6332574 7 20 C4.45909143 17.45909143 3.67171659 15.03545541 2.375 11.6875 C1.92898438 10.55699219 1.48296875 9.42648438 1.0234375 8.26171875 C0.08170671 5.26040115 -0.22162521 3.10858524 0 0 Z " fill="#DEB060" transform="translate(349,192)"/>
<path d="M0 0 C1.13732426 3.40401948 0.83989957 5.77456664 0.0625 9.25 C-0.13214844 10.14203125 -0.32679688 11.0340625 -0.52734375 11.953125 C-0.68332031 12.62859375 -0.83929688 13.3040625 -1 14 C-1.66 14 -2.32 14 -3 14 C-3 15.32 -3 16.64 -3 18 C-3.66 18 -4.32 18 -5 18 C-4.51030705 11.38914524 -2.66557258 6.05022986 0 0 Z " fill="#E2B05A" transform="translate(436,128)"/>
<path d="M0 0 C0.33 0.66 0.66 1.32 1 2 C1.99 2.33 2.98 2.66 4 3 C4 4.65 4 6.3 4 8 C5.32 8 6.64 8 8 8 C8 8.66 8 9.32 8 10 C11.3 10 14.6 10 18 10 C18 10.33 18 10.66 18 11 C8.19561288 11.463605 8.19561288 11.463605 3.9375 9.8125 C1.64356296 7.6665589 0.82935786 6.01584677 0 3 C0 2.01 0 1.02 0 0 Z " fill="#E7C574" transform="translate(378,274)"/>
<path d="M0 0 C3.10512071 1.55256035 3.40689238 4.07294738 4.625 7.25 C5.07101562 8.38953125 5.51703125 9.5290625 5.9765625 10.703125 C6.91231168 13.71752314 7.22276087 15.88134783 7 19 C4.44612397 16.44612397 3.66911986 13.99273882 2.375 10.625 C1.92898438 9.48289063 1.48296875 8.34078125 1.0234375 7.1640625 C0 4 0 4 0 0 Z " fill="#E1AF5E" transform="translate(357,215)"/>
<path d="M0 0 C4.92514366 5.59675416 5.24915461 11.89909367 5 19 C2.81403638 16.81403638 2.57768169 15.92654486 1.9375 13 C1.44544792 10.78779893 1.01674863 9.03349727 0 7 C-0.04022391 4.6670134 -0.04320247 2.33293334 0 0 Z " fill="#DEA44C" transform="translate(324,117)"/>
<path d="M0 0 C0.33 0 0.66 0 1 0 C1.34548714 6.33393082 0.29342747 11.10261508 -2 17 C-2.66 17 -3.32 17 -4 17 C-3.7168444 14.91549283 -3.42314331 12.83241633 -3.125 10.75 C-2.96257812 9.58984375 -2.80015625 8.4296875 -2.6328125 7.234375 C-2.08179569 4.41806687 -1.44203518 2.44782443 0 0 Z " fill="#E0A743" transform="translate(414,193)"/>
<path d="M0 0 C0.66 0 1.32 0 2 0 C3.59138085 4.17737474 4.21278058 7.53160785 4 12 C4.66 12 5.32 12 6 12 C6 13.65 6 15.3 6 17 C2.28898979 12.75884548 0.16288878 7.60622044 -0.1875 2 C-0.125625 1.34 -0.06375 0.68 0 0 Z " fill="#E1B467" transform="translate(372,257)"/>
<path d="M0 0 C0 3 0 3 -1.42578125 4.5703125 C-2.35970703 5.33988281 -2.35970703 5.33988281 -3.3125 6.125 C-3.92738281 6.64320313 -4.54226562 7.16140625 -5.17578125 7.6953125 C-7 9 -7 9 -10 10 C-13.1875 9.0625 -13.1875 9.0625 -16 8 C-16 7.67 -16 7.34 -16 7 C-15.43152344 6.91363281 -14.86304688 6.82726562 -14.27734375 6.73828125 C-8.31815895 5.65388869 -4.70597846 3.80483365 0 0 Z " fill="#3F444F" transform="translate(206,165)"/>
<path d="M0 0 C0.66 0 1.32 0 2 0 C0.90301833 5.69139902 -0.54053077 10.74567937 -3 16 C-3.33 16 -3.66 16 -4 16 C-3.6083965 10.04492601 -2.62875405 5.37180176 0 0 Z " fill="#DEAF5F" transform="translate(429,229)"/>
<path d="M0 0 C0.66 0 1.32 0 2 0 C1.37321829 3.66172475 0.35548154 6.8818995 -1.0625 10.3125 C-1.42472656 11.19550781 -1.78695313 12.07851562 -2.16015625 12.98828125 C-2.43730469 13.65214844 -2.71445312 14.31601563 -3 15 C-3.33 15 -3.66 15 -4 15 C-3.63495936 9.33557626 -2.9445679 4.99296295 0 0 Z " fill="#E2B662" transform="translate(459,144)"/>
<path d="M0 0 C2.11044382 3.16566573 2.75552077 5.51197415 3.625 9.1875 C3.88539063 10.27417969 4.14578125 11.36085937 4.4140625 12.48046875 C4.60742188 13.31191406 4.80078125 14.14335937 5 15 C4.34 15 3.68 15 3 15 C-0.91058106 10.48779109 -0.29469532 5.62104043 0 0 Z " fill="#E5B35D" transform="translate(369,166)"/>
<path d="M0 0 C3.64927898 3.64927898 4.91585183 8.42923408 5.1875 13.5 C5.125625 14.325 5.06375 15.15 5 16 C4.67 15.34 4.34 14.68 4 14 C3.34 14 2.68 14 2 14 C1.34 9.38 0.68 4.76 0 0 Z " fill="#E1B668" transform="translate(345,96)"/>
<path d="M0 0 C2.83374881 3.20336822 3.5205537 5.78087253 4 10 C3.67 9.34 3.34 8.68 3 8 C0.47266765 7.34444881 0.47266765 7.34444881 -2 7 C-1.125 2.25 -1.125 2.25 0 0 Z " fill="#484D56" transform="translate(293,90)"/>
<path d="M0 0 C1.90389849 2.85584773 2.69462177 4.9311762 3.625 8.1875 C4.01558594 9.53908203 4.01558594 9.53908203 4.4140625 10.91796875 C4.60742188 11.60503906 4.80078125 12.29210937 5 13 C3.66666667 13 2.33333333 13 1 13 C0.67 8.71 0.34 4.42 0 0 Z " fill="#E1AF53" transform="translate(380,200)"/>
<path d="M0 0 C0.66 0 1.32 0 2 0 C2.53394179 1.4117783 3.05165104 2.82970244 3.5625 4.25 C3.85253906 5.03890625 4.14257812 5.8278125 4.44140625 6.640625 C5.04522837 9.19103452 4.8473932 10.55322229 4 13 C3.32404685 11.58774074 2.65959941 10.16997095 2 8.75 C1.62875 7.96109375 1.2575 7.1721875 0.875 6.359375 C0 4 0 4 0 0 Z " fill="#E3B76D" transform="translate(343,176)"/>
<path d="M0 0 C1.25955231 3.77865693 0.48087189 5.03411786 -0.9375 8.6875 C-1.31777344 9.68136719 -1.69804687 10.67523438 -2.08984375 11.69921875 C-2.39019531 12.45847656 -2.69054687 13.21773438 -3 14 C-3.33 14 -3.66 14 -4 14 C-3.67 10.04 -3.34 6.08 -3 2 C-2.01 2 -1.02 2 0 2 C0 1.34 0 0.68 0 0 Z " fill="#DEAC52" transform="translate(420,257)"/>
<path d="M0 0 C2.5654594 2.5654594 2.54046087 4.47686668 3 8 C3.99 8 4.98 8 6 8 C5.67 8.99 5.34 9.98 5 11 C3.0625 10.625 3.0625 10.625 1 10 C-0.60725635 6.78548731 -0.05748185 3.56387464 0 0 Z " fill="#E4A446" transform="translate(393,237)"/>
<path d="M0 0 C0.66 0 1.32 0 2 0 C2.5345256 1.24420647 3.05208611 2.49570936 3.5625 3.75 C3.85253906 4.44609375 4.14257812 5.1421875 4.44140625 5.859375 C5.07831803 8.30012784 4.80248831 9.6403655 4 12 C4 11.34 4 10.68 4 10 C3.34 10 2.68 10 2 10 C1.34 6.7 0.68 3.4 0 0 Z " fill="#E4991F" transform="translate(347,110)"/>
<path d="M0 0 C0.66 0 1.32 0 2 0 C1.45144652 4.571279 0.58255197 8.67435795 -1 13 C-1.33 13 -1.66 13 -2 13 C-2.19294408 8.17639811 -1.75747614 4.50353262 0 0 Z " fill="#E0B366" transform="translate(445,182)"/>
<path d="M0 0 C0.66 0.33 1.32 0.66 2 1 C1.34 2.32 0.68 3.64 0 5 C-3 5 -3 5 -6 3 C-5.67 2.34 -5.34 1.68 -5 1 C-4.01 1 -3.02 1 -2 1 C-1.34 0.67 -0.68 0.34 0 0 Z " fill="#353C45" transform="translate(229,267)"/>
<path d="M0 0 C0.33 0 0.66 0 1 0 C1 2.64 1 5.28 1 8 C0.34 8 -0.32 8 -1 8 C-1 9.32 -1 10.64 -1 12 C-1.66 12 -2.32 12 -3 12 C-2.69106068 10.3743193 -2.3777305 8.74947252 -2.0625 7.125 C-1.88847656 6.22007812 -1.71445312 5.31515625 -1.53515625 4.3828125 C-1 2 -1 2 0 0 Z " fill="#E3BD71" transform="translate(418,180)"/>
<path d="M0 0 C0.66 0 1.32 0 2 0 C5.125 6.625 5.125 6.625 4 10 C4 9.34 4 8.68 4 8 C3.34 8 2.68 8 2 8 C2 7.01 2 6.02 2 5 C1.34 5 0.68 5 0 5 C0 3.35 0 1.7 0 0 Z " fill="#E7B76A" transform="translate(359,141)"/>
<path d="M0 0 C0.66 0.99 1.32 1.98 2 3 C1.3203125 5.69921875 1.3203125 5.69921875 0.125 8.6875 C-0.26429688 9.68136719 -0.65359375 10.67523438 -1.0546875 11.69921875 C-1.52261719 12.83810547 -1.52261719 12.83810547 -2 14 C-3.21065165 10.36804504 -2.62784815 8.93468371 -1.5625 5.3125 C-1.27503906 4.31863281 -0.98757813 3.32476562 -0.69140625 2.30078125 C-0.46324219 1.54152344 -0.23507812 0.78226562 0 0 Z " fill="#DEB86C" transform="translate(440,114)"/>
<path d="M0 0 C3.11223313 4.14964417 3.52003578 6.00837213 4 11 C3.01 10.67 2.02 10.34 1 10 C0.67 6.7 0.34 3.4 0 0 Z " fill="#DF9928" transform="translate(355,205)"/>
<path d="M0 0 C0.99 0.33 1.98 0.66 3 1 C2.67 1.99 2.34 2.98 2 4 C2.99 5.485 2.99 5.485 4 7 C3.01 7 2.02 7 1 7 C1 6.34 1 5.68 1 5 C-0.32 4.67 -1.64 4.34 -3 4 C-3 3.34 -3 2.68 -3 2 C-2.01 1.34 -1.02 0.68 0 0 Z " fill="#4B545C" transform="translate(220,181)"/>
<path d="M0 0 C0.66 0 1.32 0 2 0 C1.40075776 4.19469571 0.42500059 8.00999834 -1 12 C-1.33 12 -1.66 12 -2 12 C-2.17835515 7.45194365 -1.99785435 4.1205746 0 0 Z " fill="#E0B46B" transform="translate(467,120)"/>
<path d="M0 0 C2 2 2 2 2.125 5.125 C2.08375 6.07375 2.0425 7.0225 2 8 C-0.475 7.01 -0.475 7.01 -3 6 C-1.125 1.125 -1.125 1.125 0 0 Z " fill="#272F37" transform="translate(237,153)"/>
<path d="M0 0 C1.96713413 2.95070119 2.65358161 4.53581611 3 8 C2.01 9.485 2.01 9.485 1 11 C-0.62950412 6.87831311 -1.26264601 4.29299643 0 0 Z " fill="#DCA94F" transform="translate(333,142)"/>
<path d="M0 0 C1.15957207 3.47871621 0.77456651 4.34219645 -0.4375 7.6875 C-0.72496094 8.49574219 -1.01242187 9.30398437 -1.30859375 10.13671875 C-1.65083984 11.05904297 -1.65083984 11.05904297 -2 12 C-2.33 12 -2.66 12 -3 12 C-3.34833144 7.12335991 -2.41685712 4.22949995 0 0 Z " fill="#E2B366" transform="translate(424,245)"/>
<path d="M0 0 C0.66 0 1.32 0 2 0 C2.625 2.8125 2.625 2.8125 3 6 C2.34 6.99 1.68 7.98 1 9 C-0.4783226 6.04335481 -0.06032783 3.25770263 0 0 Z " fill="#E1A33C" transform="translate(357,135)"/>
<path d="M0 0 C0.66 0 1.32 0 2 0 C4.42857143 6.28571429 4.42857143 6.28571429 3 10 C0.96564469 6.27034861 0 4.33094958 0 0 Z " fill="#E2BA67" transform="translate(354,125)"/>
<path d="M0 0 C0.99 0.33 1.98 0.66 3 1 C2.25 7.75 2.25 7.75 0 10 C0 6.7 0 3.4 0 0 Z " fill="#DF9620" transform="translate(441,111)"/>
<path d="M0 0 C0.33 1.32 0.66 2.64 1 4 C-0.65 5.32 -2.3 6.64 -4 8 C-3.67 6.35 -3.34 4.7 -3 3 C-2.01 2.67 -1.02 2.34 0 2 C0 1.34 0 0.68 0 0 Z " fill="#E49826" transform="translate(423,175)"/>
<path d="M0 0 C1.46726798 3.81489674 0.43336419 6.29011622 -1 10 C-1.99 9.67 -2.98 9.34 -4 9 C-3.34 8.67 -2.68 8.34 -2 8 C-1.60828247 6.34608154 -1.27942455 4.67654729 -1 3 C-0.67 2.01 -0.34 1.02 0 0 Z " fill="#E5B162" transform="translate(399,236)"/>
<path d="M0 0 C2.29633824 3.44450737 2.54016485 5.93812283 3 10 C2.01 9.34 1.02 8.68 0 8 C-0.40843923 5.28796348 -0.13336867 2.7562858 0 0 Z " fill="#DFAE58" transform="translate(377,190)"/>
<path d="M0 0 C0.93065133 2.60582371 1.14917407 3.64198224 0.0625 6.25 C-0.4634375 7.11625 -0.4634375 7.11625 -1 8 C-1.66 7.34 -2.32 6.68 -3 6 C-2.75 3.4375 -2.75 3.4375 -2 1 C-1.34 0.67 -0.68 0.34 0 0 Z " fill="#2C323A" transform="translate(211,159)"/>
<path d="M0 0 C0.99 0.66 1.98 1.32 3 2 C3 2.99 3 3.98 3 5 C-1.875 3.25 -1.875 3.25 -3 1 C-2.01 0.67 -1.02 0.34 0 0 Z " fill="#43474F" transform="translate(232,273)"/>
<path d="M0 0 C0.66 0 1.32 0 2 0 C2 2.31 2 4.62 2 7 C1.01 7.33 0.02 7.66 -1 8 C-0.67 5.36 -0.34 2.72 0 0 Z " fill="#E49919" transform="translate(404,224)"/>
</svg>
